<svg xmlns="http://www.w3.org/2000/svg" viewBox="0 0 238.88 83.24"><defs><style>.cls-1,.cls-2{fill:none;}.cls-1,.cls-2,.cls-3{stroke:#005aa4;stroke-miterlimit:10;}.cls-1{stroke-width:2px;}.cls-3{fill:#fff;}.cls-4{font-size:71.34px;fill:#389f47;font-family:Verdana;}</style></defs><g id="Layer_2" data-name="Layer 2"><g id="Layer_2-2" data-name="Layer 2"><path class="cls-1" d="M4.21,62.34l1.61-2.47.72-2V54.06A1.54,1.54,0,0,0,6.13,53l-.37-.41L4,50.65,3,48.87a2,2,0,0,1-.21-.47L2,45.55l-.6-2.67L1,40.36V38a2.46,2.46,0,0,1,.2-1l.34-.8.21-.4a2,2,0,0,0,.15-1.57l-.12-.4L1,29.63V25.55l.3-3.18L2,19.56,3,17l1-2.71a3.41,3.41,0,0,1,.6-1l1.44-1.68a4.56,4.56,0,0,1,1.06-.9L9.85,9.05l1.68-.82a4.42,4.42,0,0,1,1.92-.44H17a2.88,2.88,0,0,1,.78.11l.74.22.27.09,1.47.55S23.38,10,24,10.42l2.76,1.66,1.45,1.27a2.81,2.81,0,0,1,.67.86L30,15.67a3,3,0,0,1,.34.6l.94,2.18.9,2.52.73,2.59.33,1.86a5.77,5.77,0,0,1,.09,1V32.9a4.53,4.53,0,0,0,.18,1.27l.42,1.46.22.67a5.41,5.41,0,0,1,.26,1.64V41a4,4,0,0,1-.14,1l-.58,2.08-.78,2.74L32,48.72l-.57,1a2.32,2.32,0,0,1-.54.63l-1.1.86a1.92,1.92,0,0,0-.63.9l0,.07a2.64,2.64,0,0,0-.14.92L29,55.38l-.36,2.37,0,1a2.14,2.14,0,0,0,.28,1l.33.57,1.22,1.71.71.85"/><polyline class="cls-2" points="8.57 22.15 16.73 24.36 16.73 24.36"/><polyline class="cls-2" points="18.24 24.41 26 22.68 26 22.68"/><polyline class="cls-2" points="27.84 44.32 28.98 33.8 28.98 33.8"/><polyline class="cls-2" points="18.34 34.37 22.98 40.72 22.98 40.72"/><polyline class="cls-2" points="26.75 46.27 18.24 51.86 18.24 51.86"/><polyline class="cls-2" points="28.62 33.67 23.54 40.69 23.54 40.69"/><polyline class="cls-2" points="16.69 51.36 17.13 35.05 17.13 35.05"/><polyline class="cls-2" points="7.96 45.03 10.2 42.41 10.2 42.41"/><polyline class="cls-2" points="18.34 33.57 27.95 32.47 27.95 32.47"/><polyline class="cls-2" points="6.61 32.66 16.07 33.22 16.07 33.22"/><polyline class="cls-2" points="6.21 33.61 11.49 41.18 11.49 41.18"/><polyline class="cls-2" points="16.48 32.91 11.49 41.18 11.49 41.18"/><polyline class="cls-2" points="26.75 45.03 23.15 41.01 23.15 41.01"/><polyline class="cls-2" points="22.49 42.43 17.13 52.04 17.13 52.04"/><polyline class="cls-2" points="17.15 52.76 8 46.25 8 46.25"/><polyline class="cls-2" points="5.23 33.2 6.7 44.92 6.7 44.92"/><polyline class="cls-2" points="16.81 52.23 11.62 42.24 11.62 42.24"/><polyline class="cls-2" points="7.29 21.87 5.58 32.27 5.58 32.27"/><polyline class="cls-2" points="27.84 23.3 28.75 30.84 28.75 30.84"/><polyline class="cls-2" points="17.57 22.68 17.14 34.53 17.14 34.53"/><ellipse class="cls-3" cx="7.29" cy="21.87" rx="1.31" ry="1.61"/><ellipse class="cls-3" cx="17.36" cy="24.36" rx="1.31" ry="1.61"/><ellipse class="cls-3" cx="27.29" cy="22.14" rx="1.31" ry="1.61"/><ellipse class="cls-3" cx="29.24" cy="32.21" rx="1.31" ry="1.61"/><ellipse class="cls-3" cx="17.36" cy="33.47" rx="1.31" ry="1.61"/><ellipse class="cls-3" cx="5.28" cy="32.21" rx="1.31" ry="1.61"/><ellipse class="cls-3" cx="22.98" cy="41.7" rx="1.31" ry="1.61"/><ellipse class="cls-3" cx="27.29" cy="45.71" rx="1.31" ry="1.61"/><ellipse class="cls-3" cx="11.49" cy="41.7" rx="1.31" ry="1.61"/><ellipse class="cls-3" cx="7.13" cy="45.71" rx="1.31" ry="1.61"/><ellipse class="cls-3" cx="17.15" cy="52.76" rx="1.31" ry="1.61"/><text class="cls-4" transform="translate(42.36 61.61) scale(0.76 1)">DeLock</text></g></g></svg>