<svg id="Layer_2" data-name="Layer 2" xmlns="http://www.w3.org/2000/svg" viewBox="0 0 250 100"><defs><style>.cls-1{fill:#389f47;}.cls-2{fill:#005aa4;}.cls-3{fill:#035aa4;}</style></defs><path class="cls-1" d="M138,17.64h78.93a20.18,20.18,0,0,1,5,.88,10.6,10.6,0,0,1,6.87,9.91c.1,4-5.35,10.13-9.67,10.17-6.12.06-13.18.06-18.42,0-1.76,0-.58.92-.58.92s5.63,5.59,9.08,9.09C220.6,60.27,225.32,65,225.88,65.53a.23.23,0,0,0,.16.06h15.47c.17,0,.26-.17.15-.28l-17.61-16.4-.68-1c.22-.41,3.48-1.2,5.77-2.31,11.61-5.61,11.4-11.46,11.74-14,1.49-11.13-1.5-16.34-9.9-21.64a21.26,21.26,0,0,0-9.49-2.77c-8.34-.77-81.33.08-83.49-.05"/><path class="cls-2" d="M133.7,17.64H54.81s-29-.75-31.37,0c-1.19.39-3.41.2-3.56,6.19-.1,4,3.33,5.64,7.65,5.68,8.95.08,22.82-.15,28.36,0a34.69,34.69,0,0,1,8.51,1.1c2.26.82,13.39,8.08,10.35,20.85C71,67.13,54.4,65.56,54.4,65.56H9.7V55.14s42.11.64,46.56,0c7.55-1.07,9.36-3.75,9.25-7.78-.17-6-3.37-7.37-7.47-7.93-2.1-.29-24.57,0-27.31-.07C8.31,38.76,9.53,30.28,8.52,23.7,7.15,14.88,14.54,9.79,20,7.91c3.58-1.24,30.31-.77,30.31-.77s81.27.13,83.43,0"/><rect class="cls-2" x="82" y="30.61" width="51.7" height="10.5"/><rect class="cls-2" x="82" y="55.05" width="51.8" height="10.5"/><rect class="cls-1" x="138" y="30.61" width="51.74" height="10.5"/><rect class="cls-1" x="138" y="55.05" width="51.84" height="10.5"/><rect class="cls-1" x="138" y="7.14" width="12.34" height="58.42"/><rect class="cls-2" x="82" y="7.14" width="12.11" height="58.42"/><path class="cls-3" d="M16,74.5,12.39,93H8.94L12.53,74.5Z"/><path class="cls-3" d="M18,82.65c.22-1.18.46-2.36.63-3.53h3.27c0,.39-.17,1.39-.25,1.75a4.44,4.44,0,0,1,3.84-2c2.49,0,3.93,1.66,3.13,5.77L27,93H23.67l1.62-8.45c.32-1.56,0-2.68-1.43-2.68-1.63,0-2.66,1.35-3.15,3.93L19.32,93H16Z"/><path class="cls-3" d="M31.59,79.12h1.89l.74-3.75h3.31l-.72,3.75H39.2l-.57,2.79H36.24l-1.33,7c-.17.87-.1,1.44.9,1.44a6.5,6.5,0,0,0,1.09-.09l-.51,2.65a6.84,6.84,0,0,1-2.26.26c-2.64,0-3.05-1.66-2.59-4.09l1.37-7.18H31Z"/><path class="cls-3" d="M42.9,86.91a3.89,3.89,0,0,0-.08.83c0,1.48.5,2.75,2,2.75A2.46,2.46,0,0,0,47.2,88.8h3.47a6.12,6.12,0,0,1-6.13,4.51c-3.42,0-5.08-2.35-5.08-5.71,0-3.67,1.83-8.75,6.88-8.75,3.74,0,5,2.5,5,5.35A9.89,9.89,0,0,1,51,86.91Zm5.24-2.44a2.51,2.51,0,0,0,.06-.62c0-1.22-.49-2.25-2-2.25s-2.46,1.07-2.9,2.87Z"/><path class="cls-3" d="M52.62,93l3.79-19.63h3.33L56,93Z"/><path class="cls-3" d="M59.45,93l3.78-19.63h3.34L62.78,93Z"/><path class="cls-3" d="M69,79.12h3.33L69.63,93H66.29Zm1.1-5.71h3.33l-.66,3.44H69.41Z"/><path class="cls-3" d="M84.73,91c-.87,4.5-2,7.63-7,7.63-4.76,0-5.17-2.8-5.19-4.43H76c0,.84.54,1.68,2.08,1.68,1.92,0,2.67-1.3,3.28-4.26l.09-.43a4,4,0,0,1-3.55,1.67c-2.74,0-4.2-2.19-4.2-5.4,0-4.1,2.4-8.63,6.44-8.63,2,0,3,.79,3.37,1.66.1-.43.33-1.1.43-1.39h3.2c-.22,1-.49,2.31-.72,3.48Zm-7.56-3.81c0,1.72.67,2.7,2.06,2.7,1.77,0,2.87-1.64,3.37-4.18.38-1.89.27-3.94-2-3.94S77.17,84.73,77.17,87.21Z"/><path class="cls-3" d="M91.83,86.91a3.89,3.89,0,0,0-.08.83c0,1.48.5,2.75,2,2.75a2.46,2.46,0,0,0,2.38-1.69H99.6a6.12,6.12,0,0,1-6.13,4.51c-3.41,0-5.08-2.35-5.08-5.71,0-3.67,1.83-8.75,6.88-8.75,3.74,0,5,2.5,5,5.35a10.34,10.34,0,0,1-.33,2.71Zm5.24-2.44a2.51,2.51,0,0,0,.06-.62c0-1.22-.49-2.25-2-2.25s-2.46,1.07-2.9,2.87Z"/><path class="cls-3" d="M103.71,82.65c.22-1.18.46-2.36.63-3.53h3.27c0,.39-.18,1.39-.25,1.75a4.44,4.44,0,0,1,3.83-2c2.5,0,3.93,1.66,3.13,5.77L112.7,93h-3.31L111,84.59c.31-1.56,0-2.68-1.44-2.68-1.63,0-2.65,1.35-3.15,3.93L105,93H101.7Z"/><path class="cls-3" d="M117.31,79.12h1.88l.74-3.75h3.32l-.72,3.75h2.39l-.57,2.79H122l-1.34,7c-.16.87-.09,1.44.91,1.44a6.5,6.5,0,0,0,1.09-.09l-.51,2.65a6.87,6.87,0,0,1-2.26.26c-2.64,0-3.06-1.66-2.6-4.09l1.37-7.18h-1.88Z"/><path class="cls-3" d="M134.61,87.34a3,3,0,0,0,3.37,3c1.83,0,2.87-.73,2.87-2.42,0-1.44-.82-2.2-3.07-3-3.44-1.3-4.71-2.81-4.71-5.15,0-3,1.92-5.54,6.21-5.54,3.92,0,6.07,2.22,6.13,5.48H141.9a2.44,2.44,0,0,0-2.77-2.52c-1.43,0-2.5.72-2.5,2.16,0,1,.54,1.69,2.72,2.52,3.43,1.32,5.14,2.82,5.14,5.62,0,3-1.64,5.82-6.86,5.82-4.22,0-6.44-2.34-6.54-6Z"/><path class="cls-3" d="M159.14,84.83c0,3.27-1.75,8.48-7.13,8.48-3.53,0-5.16-2.36-5.16-5.75,0-3.75,2.17-8.71,7-8.71C156.91,78.85,159.14,80.74,159.14,84.83Zm-8.82,2.75c0,1.93.74,2.89,2,2.89,2.4,0,3.34-3.64,3.34-6,0-1.81-.69-2.76-2.08-2.76C151.3,81.7,150.32,85.31,150.32,87.58Z"/><path class="cls-3" d="M160.55,93l3.78-19.63h3.34L163.88,93Z"/><path class="cls-3" d="M178.92,89.32c-.25,1.23-.49,2.6-.66,3.72H175a17.27,17.27,0,0,1,.27-1.92,4.47,4.47,0,0,1-4,2.19c-2.36,0-3.71-1.73-3.1-4.92L170,79.12h3.31l-1.72,8.79c-.28,1.45-.07,2.4,1.35,2.4s2.71-1.26,3.31-4.36l1.34-6.83h3.33Z"/><path class="cls-3" d="M183.25,79.12h1.88l.74-3.75h3.31l-.72,3.75h2.39l-.57,2.79h-2.39l-1.33,7c-.16.87-.09,1.44.91,1.44a6.47,6.47,0,0,0,1.08-.09l-.5,2.65a6.87,6.87,0,0,1-2.26.26c-2.64,0-3.06-1.66-2.6-4.09l1.37-7.18h-1.88Z"/><path class="cls-3" d="M193.37,79.12h3.33L194,93h-3.34Zm1.1-5.71h3.33l-.66,3.44H193.8Z"/><path class="cls-3" d="M210.33,84.83c0,3.27-1.75,8.48-7.13,8.48-3.54,0-5.16-2.36-5.16-5.75,0-3.75,2.17-8.71,7-8.71C208.1,78.85,210.33,80.74,210.33,84.83Zm-8.83,2.75c0,1.93.75,2.89,2,2.89,2.39,0,3.34-3.64,3.34-6,0-1.81-.69-2.76-2.08-2.76C202.49,81.7,201.5,85.31,201.5,87.58Z"/><path class="cls-3" d="M213.74,82.65c.22-1.18.46-2.36.64-3.53h3.26c0,.39-.17,1.39-.25,1.75a4.44,4.44,0,0,1,3.83-2c2.5,0,3.94,1.66,3.14,5.77L222.73,93h-3.31L221,84.59c.32-1.56,0-2.68-1.43-2.68-1.63,0-2.65,1.35-3.15,3.93L215.07,93h-3.33Z"/><path class="cls-3" d="M229.46,88.73c.08,1.21.81,1.86,2.2,1.86s1.83-.65,1.83-1.57-.68-1.33-2.26-1.88c-3-1-3.89-2.14-3.89-3.85,0-2.52,1.8-4.44,5.17-4.44,3.54,0,5.12,2,5,4.19h-3.38c0-.75-.39-1.49-1.83-1.49-.82,0-1.65.3-1.65,1.27,0,.75.67,1,2.24,1.58,3,1,4,2.31,4,4.24,0,3.2-2.63,4.67-5.64,4.67-3.39,0-5.35-1.67-5.2-4.58Z"/></svg>